<svg
	class="pbs-c-wheel-all-shows"
	xmlns="http://www.w3.org/2000/svg"
	viewBox="0 0 1000 1000"
>
	<defs>
		<style>
			.pbs-u-fill-white {
				fill: white;
			}
		</style>
	</defs>
	<a xlink:href="https://en.wikipedia.org/wiki/Bullseye_(target)">
		<g>
			<path
				d="M331.56,29.09,355.13,95a432.25,432.25,0,0,1,289.74,0l23.57-65.91a502.2,502.2,0,0,0-336.88,0Z"
			/>
			<path
				class="pbs-u-fill-white"
				d="M422.48,40.05c.12-.63.26-1.35.41-2.17s.33-1.67.5-2.55.34-1.78.51-2.69.33-1.76.5-2.56.31-1.52.43-2.16.21-1.13.29-1.49l1.35-.21,1.76-.26,1.83-.26c.61-.08,1.13-.14,1.57-.18.46.93,1,2,1.61,3.21s1.25,2.48,1.91,3.83,1.36,2.73,2.08,4.15,1.42,2.84,2.11,4.24,1.36,2.77,2,4.1l1.77,3.66c-1.09.36-2.19.68-3.29,1s-2.2.62-3.29,1a17.37,17.37,0,0,0-.71-2.4c-.27-.7-.57-1.47-.92-2.33L427.08,47c-.08.85-.18,1.62-.27,2.32s-.14,1.19-.19,1.78-.08,1-.1,1.21l-6.34-.41Zm10.91.71L429.29,31l-1.8,10.67Z"
			/>
			<path
				class="pbs-u-fill-white"
				d="M442.38,22l5.45-.39,3.48,26.6-6,.75Z"
			/>
			<path
				class="pbs-u-fill-white"
				d="M452,21l5.46-.28,3,26.66-6,.64Z"
			/>
			<path
				class="pbs-u-fill-white"
				d="M473.06,39.32c1,.32,2,.64,3,.93a9.33,9.33,0,0,0,3.06.39c.27,0,.6,0,1-.08a4.94,4.94,0,0,0,1.14-.25,3.41,3.41,0,0,0,.93-.49,1,1,0,0,0,.36-.85,1.64,1.64,0,0,0-.8-1.25,13.65,13.65,0,0,0-1.9-1.12l-2.47-1.24a13.39,13.39,0,0,1-2.49-1.6,8.93,8.93,0,0,1-2-2.16,5.68,5.68,0,0,1-.86-2.94,7.18,7.18,0,0,1,.7-3.65,7,7,0,0,1,2.13-2.53A10,10,0,0,1,478,21a15.72,15.72,0,0,1,3.61-.58,22.85,22.85,0,0,1,4.24.25,17.22,17.22,0,0,1,4.08,1.11L489,27.35l-1.72-.58a12.65,12.65,0,0,0-1.58-.41,14.4,14.4,0,0,0-1.64-.21,17.89,17.89,0,0,0-1.81,0c-.3,0-.64,0-1,.08a4.11,4.11,0,0,0-1.1.26,2.14,2.14,0,0,0-.85.56,1.32,1.32,0,0,0-.3.94,1.93,1.93,0,0,0,.88,1.44,12.38,12.38,0,0,0,2.1,1.25L484.7,32a17.33,17.33,0,0,1,2.72,1.63,9.06,9.06,0,0,1,2.14,2.23,5.64,5.64,0,0,1,.94,3,6.07,6.07,0,0,1-.65,3.14,7.18,7.18,0,0,1-1.94,2.3,9,9,0,0,1-2.76,1.43,11.64,11.64,0,0,1-3.11.56,43.11,43.11,0,0,1-4.91-.1,22.1,22.1,0,0,1-4.81-.87Z"
			/>
			<path
				class="pbs-u-fill-white"
				d="M499.07,18.78v9.51a11.6,11.6,0,0,1,2.37-2,5.3,5.3,0,0,1,2.91-.79,5.63,5.63,0,0,1,2.58.58,5.83,5.83,0,0,1,1.89,1.55A7.52,7.52,0,0,1,510,29.89a9,9,0,0,1,.44,2.6c0,1.66.06,3.3.05,4.93v1.65c0,.63,0,1.25,0,1.87,0,1.56,0,3.13.06,4.7l-5.61-.16c0-.92.05-1.85.06-2.77s0-1.84,0-2.75V38.8c0-.49,0-1,0-1.65s-.05-1.22-.11-1.85a10.07,10.07,0,0,0-.34-1.72,4.41,4.41,0,0,0-.6-1.25,1.12,1.12,0,0,0-.93-.49,3.49,3.49,0,0,0-2.36.81,10.55,10.55,0,0,0-1.59,1.71l.19,11.2-5.75,0,.06-26.9Z"
			/>
			<path
				class="pbs-u-fill-white"
				d="M513.84,32.35a11.4,11.4,0,0,1,1.81-3.44,8.55,8.55,0,0,1,3-2.42,7.72,7.72,0,0,1,4-.76h.16a7.57,7.57,0,0,1,4,1.28,8.56,8.56,0,0,1,2.55,2.72,11.18,11.18,0,0,1,1.33,3.43,15.25,15.25,0,0,1,.36,3.44l0,.28a16.79,16.79,0,0,1-.48,3.13A9.71,9.71,0,0,1,529,43.31,7.74,7.74,0,0,1,522,46.56a9.17,9.17,0,0,1-4.34-1.15,8.41,8.41,0,0,1-2.76-2.56,9.28,9.28,0,0,1-1.41-3.28,13,13,0,0,1-.32-3.41A14.53,14.53,0,0,1,513.84,32.35Zm4.67,3.37a6.2,6.2,0,0,0,.16,1.57,6.55,6.55,0,0,0,.67,1.69,3.51,3.51,0,0,0,1.06,1.19,2.66,2.66,0,0,0,1.4.49,3,3,0,0,0,1.41-.28,3.71,3.71,0,0,0,1.22-.93,5,5,0,0,0,.9-1.52,6.3,6.3,0,0,0,.41-2,9,9,0,0,0-.12-1.78,5.58,5.58,0,0,0-.57-1.67A3.61,3.61,0,0,0,524,31.24a3,3,0,0,0-1.64-.53,3.05,3.05,0,0,0-1.56.29,3.29,3.29,0,0,0-1.12.95,4.84,4.84,0,0,0-.75,1.47,8.36,8.36,0,0,0-.36,1.88C518.53,35.44,518.52,35.58,518.51,35.72Z"
			/>
			<path
				class="pbs-u-fill-white"
				d="M535.15,27.29c.61-.08,1.22-.14,1.8-.18l1.68-.14,1.24-.1.38,6.29c0,.37.1.93.22,1.69s.26,1.51.41,2.26.37,1.81.55,2.79c.38-1,.75-2,1.1-2.92s.55-1.56.84-2.32.48-1.33.59-1.7l1.62-5.36,1.2.18,1.62.21,1.56.2,1,.12c0,.3.09.69.14,1.18s.12,1,.18,1.53.12,1.05.19,1.57.14,1,.22,1.34.22,1,.43,1.86.43,1.62.63,2.41c.25,1,.51,2,.8,3,.34-1.06.69-2.06,1-3l.82-2.36c.28-.76.47-1.33.58-1.7s.25-.82.41-1.33.32-1,.47-1.52.29-1,.41-1.42.23-.81.31-1.1l5.81.87q-.21.52-.51,1.41c-.21.58-.46,1.25-.74,2s-.58,1.55-.91,2.41-.68,1.73-1,2.65c-.46,1.09-.93,2.2-1.42,3.33s-.95,2.17-1.39,3.15-.84,1.84-1.19,2.58l-.79,1.64-5.74-.62-.52-1.7c-.2-.67-.42-1.42-.65-2.24s-.47-1.69-.7-2.6-.47-1.84-.69-2.79c-.4,1-.8,1.94-1.21,2.86l-1.13,2.53c-.35.77-.67,1.44-1,2s-.5,1-.62,1.29l-5.73-.55c-.18-.55-.41-1.3-.67-2.26s-.54-2-.83-3.19-.57-2.41-.85-3.72-.54-2.59-.78-3.85-.42-2.45-.58-3.58a25.38,25.38,0,0,1-.24-2.95C534,27.44,534.54,27.36,535.15,27.29Z"
			/>
			<path
				class="pbs-u-fill-white"
				d="M565.12,43.15c.33.26.7.55,1.12.84a12.53,12.53,0,0,0,1.33.84,11.28,11.28,0,0,0,1.42.66,6,6,0,0,0,1.33.37,3.8,3.8,0,0,0,1.12,0c.38-.05.61-.31.69-.79a1.37,1.37,0,0,0-.42-1.08,12,12,0,0,0-1.29-1.25c-.54-.45-1.11-.93-1.72-1.46A14.36,14.36,0,0,1,567,39.58a7.42,7.42,0,0,1-1.18-2,4.18,4.18,0,0,1-.23-2.26,4.83,4.83,0,0,1,1-2.29,6.15,6.15,0,0,1,1.87-1.57,7.1,7.1,0,0,1,2.39-.8,8.14,8.14,0,0,1,2.56,0,30.83,30.83,0,0,1,3.63.81,19.44,19.44,0,0,1,3.46,1.4l-1.7,4.67c-.67-.38-1.36-.75-2.07-1.1a7.23,7.23,0,0,0-2.25-.72c-.18,0-.4-.05-.66-.07a2.82,2.82,0,0,0-.72,0,1.27,1.27,0,0,0-.59.26.87.87,0,0,0-.31.59c0,.24.12.52.47.86s.79.72,1.32,1.17,1.11.94,1.72,1.49a12.16,12.16,0,0,1,1.66,1.84,8.21,8.21,0,0,1,1.16,2.24,5.59,5.59,0,0,1,.18,2.66,5,5,0,0,1-.86,2.12,6.39,6.39,0,0,1-1.65,1.63,6.64,6.64,0,0,1-2.13,1,5.62,5.62,0,0,1-2.3.13,26.64,26.64,0,0,1-4.35-1,18.86,18.86,0,0,1-4-2Z"
			/>
		</g>
	</a>
</svg>